<svg xmlns="http://www.w3.org/2000/svg" viewBox="0 0 512 512" width="512" height="512">
  <defs>
    <linearGradient id="bg" x1="0%" y1="0%" x2="100%" y2="100%">
      <stop offset="0%" stop-color="#0f172a"/>
      <stop offset="50%" stop-color="#1e1b4b"/>
      <stop offset="100%" stop-color="#31103f"/>
    </linearGradient>
    <linearGradient id="heart" x1="0%" y1="0%" x2="100%" y2="100%">
      <stop offset="0%" stop-color="#f43f5e"/>
      <stop offset="100%" stop-color="#e11d48"/>
    </linearGradient>
    <filter id="glow" x="-20%" y="-20%" width="140%" height="140%">
      <feGaussianBlur stdDeviation="12" result="blur" />
      <feComposite in="SourceGraphic" in2="blur" operator="over" />
    </filter>
  </defs>
  <rect width="512" height="512" rx="128" fill="url(#bg)"/>
  <circle cx="256" cy="256" r="180" fill="#f43f5e" opacity="0.15" filter="url(#glow)"/>
  <path d="M256 420s-140-92-140-190c0-54 42-96 96-96 32 0 62 16 76 42 14-26 44-42 76-42 54 0 96 42 96 96 0 98-140 190-140 190z" fill="url(#heart)"/>
  <path d="M190 220l66 50 66-50" stroke="#ffffff" stroke-width="12" stroke-linecap="round" stroke-linejoin="round" fill="none" opacity="0.9"/>
</svg>